<svg xmlns="http://www.w3.org/2000/svg" xmlns:xlink="http://www.w3.org/1999/xlink" width="26" height="26" viewBox="0 0 26 26">
  <defs>
    <clipPath id="clip-Analytic_on">
      <rect width="26" height="26"/>
    </clipPath>
  </defs>
  <g id="Analytic_on" clip-path="url(#clip-Analytic_on)">
    <g id="Vector_Smart_Object" data-name="Vector Smart Object" transform="translate(2.628 3)" style="isolation: isolate">
      <path id="Path_7" data-name="Path 7" d="M20.434,6.25V17.917a.419.419,0,0,1-.191.35l-2.609,1.667A.508.508,0,0,1,17.39,20V7.417L19.756,5.9a.447.447,0,0,1,.6.112.4.4,0,0,1,.075.238Z" fill="#dc5018"/>
      <path id="Path_8" data-name="Path 8" d="M17.39,7.417V20a.508.508,0,0,1-.243-.067l-2.609-1.667a.419.419,0,0,1-.191-.35V6.25a.425.425,0,0,1,.43-.421.448.448,0,0,1,.249.071Z" fill="#ff8a5b"/>
      <path id="Path_9" data-name="Path 9" d="M20.24,5.9,17.631,4.237a.451.451,0,0,0-.483,0L14.54,5.9a.406.406,0,0,0-.121.578.426.426,0,0,0,.121.116l2.609,1.667a.451.451,0,0,0,.483,0L20.24,6.6a.406.406,0,0,0,.121-.578A.425.425,0,0,0,20.24,5.9Z" fill="#dc5018"/>
      <path id="Path_10" data-name="Path 10" d="M13.478,2.083V17.917a.419.419,0,0,1-.191.35l-2.609,1.667a.509.509,0,0,1-.243.067V3.25L12.8,1.733a.447.447,0,0,1,.6.112A.4.4,0,0,1,13.478,2.083Z" fill="#078c95"/>
      <path id="Path_11" data-name="Path 11" d="M10.434,3.25V20a.508.508,0,0,1-.243-.067L7.582,18.267a.419.419,0,0,1-.191-.35V2.083a.425.425,0,0,1,.43-.421.448.448,0,0,1,.249.071Z" fill="#00c5d2"/>
      <path id="Path_12" data-name="Path 12" d="M13.284,1.737,10.675.07a.451.451,0,0,0-.483,0L7.584,1.737a.406.406,0,0,0-.121.578.426.426,0,0,0,.121.116L10.193,4.1a.451.451,0,0,0,.483,0L13.284,2.43a.406.406,0,0,0,.121-.578A.426.426,0,0,0,13.284,1.737Z" fill="#078c95"/>
      <path id="Path_13" data-name="Path 13" d="M6.521,9.583v8.333a.419.419,0,0,1-.191.35L3.722,19.933A.509.509,0,0,1,3.478,20V10.75L5.843,9.233a.447.447,0,0,1,.6.112A.4.4,0,0,1,6.521,9.583Z" fill="#1e88e5"/>
      <path id="Path_14" data-name="Path 14" d="M3.478,10.75V20a.508.508,0,0,1-.243-.067L.626,18.267a.419.419,0,0,1-.191-.35V9.583a.425.425,0,0,1,.43-.421.448.448,0,0,1,.249.071Z" fill="#60b9ee"/>
      <path id="Path_15" data-name="Path 15" d="M6.328,9.237,3.719,7.57a.451.451,0,0,0-.483,0L.628,9.237a.406.406,0,0,0-.121.578.426.426,0,0,0,.121.116L3.236,11.6a.451.451,0,0,0,.483,0L6.328,9.93a.406.406,0,0,0,.121-.578A.426.426,0,0,0,6.328,9.237Z" fill="#2196f3"/>
      <path id="Path_16" data-name="Path 16" d="M3.478,20a.448.448,0,0,1-.241-.07L.629,18.263a.412.412,0,0,1-.194-.347V9.583a.412.412,0,0,1,.194-.347L3.237,7.57a.451.451,0,0,1,.483,0L6.328,9.237a.412.412,0,0,1,.193.347v8.333a.412.412,0,0,1-.194.347L3.719,19.93A.449.449,0,0,1,3.478,20ZM1.3,17.693l2.174,1.39,2.174-1.389V9.807L3.478,8.417,1.3,9.807Z"/>
      <path id="Path_17" data-name="Path 17" d="M3.478,11.667a.448.448,0,0,1-.241-.07L.629,9.93a.406.406,0,0,1-.12-.578.447.447,0,0,1,.6-.115L3.478,10.75,5.846,9.237a.447.447,0,0,1,.6.115.406.406,0,0,1-.12.578L3.72,11.6A.448.448,0,0,1,3.478,11.667Z"/>
      <path id="Path_18" data-name="Path 18" d="M3.478,20a.426.426,0,0,1-.435-.417V11.25a.435.435,0,0,1,.87,0v8.333A.426.426,0,0,1,3.478,20Z"/>
      <path id="Path_19" data-name="Path 19" d="M10.434,20a.448.448,0,0,1-.241-.07L7.585,18.263a.412.412,0,0,1-.194-.347V2.083a.412.412,0,0,1,.194-.347L10.193.07a.451.451,0,0,1,.483,0l2.609,1.667a.412.412,0,0,1,.193.347V17.917a.412.412,0,0,1-.194.347L10.675,19.93A.448.448,0,0,1,10.434,20ZM8.26,17.693l2.174,1.39,2.174-1.389V2.307L10.434.917,8.26,2.307Z"/>
      <path id="Path_20" data-name="Path 20" d="M10.434,4.167a.448.448,0,0,1-.241-.07L7.585,2.43a.406.406,0,0,1-.12-.578.447.447,0,0,1,.6-.115L10.434,3.25,12.8,1.737a.447.447,0,0,1,.6.115.406.406,0,0,1-.12.578L10.676,4.1A.448.448,0,0,1,10.434,4.167Z"/>
      <path id="Path_21" data-name="Path 21" d="M10.434,20A.426.426,0,0,1,10,19.583V3.75a.435.435,0,0,1,.87,0V19.583A.426.426,0,0,1,10.434,20Z"/>
      <path id="Path_22" data-name="Path 22" d="M17.39,20a.448.448,0,0,1-.241-.07l-2.609-1.667a.412.412,0,0,1-.194-.347V6.25a.412.412,0,0,1,.194-.347L17.15,4.237a.451.451,0,0,1,.483,0L20.241,5.9a.412.412,0,0,1,.193.347V17.917a.412.412,0,0,1-.194.347L17.631,19.93A.449.449,0,0,1,17.39,20Zm-2.174-2.307,2.174,1.39,2.174-1.389V6.473L17.39,5.083l-2.174,1.39Z"/>
      <path id="Path_23" data-name="Path 23" d="M17.39,8.333a.448.448,0,0,1-.241-.07L14.541,6.6a.406.406,0,0,1-.12-.578.447.447,0,0,1,.6-.115L17.39,7.417,19.758,5.9a.447.447,0,0,1,.6.115.406.406,0,0,1-.12.578L17.632,8.264A.448.448,0,0,1,17.39,8.333Z"/>
      <path id="Path_24" data-name="Path 24" d="M17.39,20a.426.426,0,0,1-.435-.417V7.917a.435.435,0,0,1,.87,0V19.583A.426.426,0,0,1,17.39,20Z"/>
    </g>
  </g>
</svg>
