<?xml version="1.0" encoding="utf-8"?>
<!-- Generator: Adobe Illustrator 21.0.0, SVG Export Plug-In . SVG Version: 6.00 Build 0)  -->
<svg version="1.1" id="Layer_1" xmlns="http://www.w3.org/2000/svg" xmlns:xlink="http://www.w3.org/1999/xlink" x="0px" y="0px"
	 viewBox="0 0 26 26" style="enable-background:new 0 0 26 26;" xml:space="preserve">
<style type="text/css">
	.st0{clip-path:url(#SVGID_2_);}
	.st1{fill:#FF8A5B;}
	.st2{fill:#00C5D2;}
	.st3{fill:#FFC700;}
</style>
<g>
	<defs>
		<rect id="SVGID_1_" y="0" width="26" height="26"/>
	</defs>
	<clipPath id="SVGID_2_">
		<use xlink:href="#SVGID_1_"  style="overflow:visible;"/>
	</clipPath>
	<g id="Analytic_on" class="st0">
		<g id="Vector_Smart_Object" transform="translate(2.628 3)">
			<path id="Path_7" class="st1" d="M20.4,6.2v11.7c0,0.1-0.1,0.3-0.2,0.4l-2.6,1.7c-0.1,0-0.2,0.1-0.2,0.1V7.4l2.4-1.5
				C20,5.8,20.2,5.8,20.4,6C20.4,6.1,20.4,6.2,20.4,6.2L20.4,6.2z"/>
			<path id="Path_8" class="st1" d="M17.4,7.4V20c-0.1,0-0.2,0-0.2-0.1l-2.6-1.7c-0.1-0.1-0.2-0.2-0.2-0.4V6.2
				c0-0.2,0.2-0.4,0.4-0.4c0,0,0,0,0,0c0.1,0,0.2,0,0.2,0.1L17.4,7.4z"/>
			<path id="Path_9" class="st1" d="M20.2,5.9l-2.6-1.7c-0.1-0.1-0.3-0.1-0.5,0l-2.6,1.7c-0.2,0.1-0.3,0.4-0.1,0.6c0,0,0,0,0,0
				c0,0,0.1,0.1,0.1,0.1l2.6,1.7c0.1,0.1,0.3,0.1,0.5,0l2.6-1.7c0.2-0.1,0.3-0.4,0.1-0.6c0,0,0,0,0,0C20.3,6,20.3,5.9,20.2,5.9z"/>
			<path id="Path_10" class="st2" d="M13.5,2.1v15.8c0,0.1-0.1,0.3-0.2,0.4l-2.6,1.7c-0.1,0-0.2,0.1-0.2,0.1V3.2l2.4-1.5
				c0.2-0.1,0.5-0.1,0.6,0.1C13.5,1.9,13.5,2,13.5,2.1z"/>
			<path id="Path_11" class="st2" d="M10.4,3.2V20c-0.1,0-0.2,0-0.2-0.1l-2.6-1.7c-0.1-0.1-0.2-0.2-0.2-0.4V2.1
				c0-0.2,0.2-0.4,0.4-0.4c0,0,0,0,0,0c0.1,0,0.2,0,0.2,0.1L10.4,3.2z"/>
			<path id="Path_12" class="st2" d="M13.3,1.7l-2.6-1.7c-0.1-0.1-0.3-0.1-0.5,0L7.6,1.7C7.4,1.9,7.3,2.1,7.5,2.3c0,0,0,0,0,0
				c0,0,0.1,0.1,0.1,0.1l2.6,1.7c0.1,0.1,0.3,0.1,0.5,0l2.6-1.7c0.2-0.1,0.3-0.4,0.1-0.6c0,0,0,0,0,0C13.4,1.8,13.3,1.8,13.3,1.7z"
				/>
			<path id="Path_13" class="st3" d="M6.5,9.6v8.3c0,0.1-0.1,0.3-0.2,0.4l-2.6,1.7C3.6,20,3.6,20,3.5,20v-9.2l2.4-1.5
				C6,9.1,6.3,9.2,6.4,9.3C6.5,9.4,6.5,9.5,6.5,9.6z"/>
			<path id="Path_14" class="st3" d="M3.5,10.7V20c-0.1,0-0.2,0-0.2-0.1l-2.6-1.7c-0.1-0.1-0.2-0.2-0.2-0.4V9.6
				c0-0.2,0.2-0.4,0.4-0.4c0,0,0,0,0,0c0.1,0,0.2,0,0.2,0.1L3.5,10.7z"/>
			<path id="Path_15" class="st3" d="M6.3,9.2L3.7,7.6c-0.1-0.1-0.3-0.1-0.5,0L0.6,9.2C0.4,9.4,0.4,9.6,0.5,9.8c0,0,0,0,0,0
				c0,0,0.1,0.1,0.1,0.1l2.6,1.7c0.1,0.1,0.3,0.1,0.5,0l2.6-1.7c0.2-0.1,0.3-0.4,0.1-0.6c0,0,0,0,0,0C6.4,9.3,6.4,9.3,6.3,9.2z"/>
			<path id="Path_16" d="M3.5,20c-0.1,0-0.2,0-0.2-0.1l-2.6-1.7c-0.1-0.1-0.2-0.2-0.2-0.3V9.6c0-0.1,0.1-0.3,0.2-0.3l2.6-1.7
				c0.1-0.1,0.3-0.1,0.5,0l2.6,1.7c0.1,0.1,0.2,0.2,0.2,0.3v8.3c0,0.1-0.1,0.3-0.2,0.3l-2.6,1.7C3.6,20,3.6,20,3.5,20z M1.3,17.7
				l2.2,1.4l2.2-1.4V9.8L3.5,8.4L1.3,9.8V17.7z"/>
			<path id="Path_17" d="M3.5,11.7c-0.1,0-0.2,0-0.2-0.1L0.6,9.9C0.4,9.8,0.4,9.6,0.5,9.4c0,0,0,0,0,0c0.1-0.2,0.4-0.2,0.6-0.1
				l2.4,1.5l2.4-1.5C6,9.1,6.3,9.2,6.4,9.4c0.1,0.2,0.1,0.4-0.1,0.6c0,0,0,0,0,0l-2.6,1.7C3.6,11.6,3.6,11.7,3.5,11.7z"/>
			<path id="Path_18" d="M3.5,20C3.2,20,3,19.8,3,19.6c0,0,0,0,0,0v-8.3c0-0.2,0.2-0.4,0.4-0.4s0.4,0.2,0.4,0.4v8.3
				C3.9,19.8,3.7,20,3.5,20C3.5,20,3.5,20,3.5,20z"/>
			<path id="Path_19" d="M10.4,20c-0.1,0-0.2,0-0.2-0.1l-2.6-1.7c-0.1-0.1-0.2-0.2-0.2-0.3V2.1c0-0.1,0.1-0.3,0.2-0.3l2.6-1.7
				c0.1-0.1,0.3-0.1,0.5,0l2.6,1.7c0.1,0.1,0.2,0.2,0.2,0.3v15.8c0,0.1-0.1,0.3-0.2,0.3l-2.6,1.7C10.6,20,10.5,20,10.4,20z
				 M8.3,17.7l2.2,1.4l2.2-1.4V2.3l-2.2-1.4L8.3,2.3V17.7z"/>
			<path id="Path_20" d="M10.4,4.2c-0.1,0-0.2,0-0.2-0.1L7.6,2.4C7.4,2.3,7.3,2.1,7.5,1.9c0,0,0,0,0,0c0.1-0.2,0.4-0.2,0.6-0.1
				l2.4,1.5l2.4-1.5c0.2-0.1,0.5-0.1,0.6,0.1c0.1,0.2,0.1,0.4-0.1,0.6c0,0,0,0,0,0l-2.6,1.7C10.6,4.1,10.5,4.2,10.4,4.2z"/>
			<path id="Path_21" d="M10.4,20c-0.2,0-0.4-0.2-0.4-0.4V3.7c0-0.2,0.2-0.4,0.4-0.4c0.2,0,0.4,0.2,0.4,0.4v15.8
				C10.9,19.8,10.7,20,10.4,20C10.4,20,10.4,20,10.4,20z"/>
			<path id="Path_22" d="M17.4,20c-0.1,0-0.2,0-0.2-0.1l-2.6-1.7c-0.1-0.1-0.2-0.2-0.2-0.3V6.2c0-0.1,0.1-0.3,0.2-0.3l2.6-1.7
				c0.1-0.1,0.3-0.1,0.5,0l2.6,1.7c0.1,0.1,0.2,0.2,0.2,0.3v11.7c0,0.1-0.1,0.3-0.2,0.3l-2.6,1.7C17.6,20,17.5,20,17.4,20z
				 M15.2,17.7l2.2,1.4l2.2-1.4V6.5l-2.2-1.4l-2.2,1.4V17.7z"/>
			<path id="Path_23" d="M17.4,8.3c-0.1,0-0.2,0-0.2-0.1l-2.6-1.7c-0.2-0.1-0.3-0.4-0.1-0.6c0,0,0,0,0,0c0.1-0.2,0.4-0.2,0.6-0.1
				l2.4,1.5l2.4-1.5C20,5.8,20.2,5.8,20.4,6c0.1,0.2,0.1,0.4-0.1,0.6c0,0,0,0,0,0l-2.6,1.7C17.6,8.3,17.5,8.3,17.4,8.3z"/>
			<path id="Path_24" d="M17.4,20c-0.2,0-0.4-0.2-0.4-0.4c0,0,0,0,0,0V7.9c0-0.2,0.2-0.4,0.4-0.4c0.2,0,0.4,0.2,0.4,0.4v11.7
				C17.8,19.8,17.6,20,17.4,20C17.4,20,17.4,20,17.4,20z"/>
		</g>
	</g>
</g>
</svg>
