<?xml version="1.0" encoding="utf-8"?>
<!-- Generator: Adobe Illustrator 21.0.0, SVG Export Plug-In . SVG Version: 6.00 Build 0)  -->
<svg version="1.1" id="Layer_1" xmlns="http://www.w3.org/2000/svg" xmlns:xlink="http://www.w3.org/1999/xlink" x="0px" y="0px"
	 viewBox="0 0 26 26" style="enable-background:new 0 0 26 26;" xml:space="preserve">
<style type="text/css">
	.st0{fill:#FFC107;}
	.st1{fill:#60B9EE;}
	.st2{fill:#FF8A5B;}
</style>
<g>
	<path id="Path_4" d="M20.2,21.5H5.8c-0.5,0-0.8-0.4-0.8-0.8c0-0.5,0.4-0.8,0.8-0.8h14.4c0.5,0,0.8,0.4,0.8,0.8
		C21,21.1,20.6,21.5,20.2,21.5z"/>
	<path id="Path_5" d="M4.7,19.4c-0.1,0-0.3,0-0.4-0.1C3.9,19,3.7,18.5,4,18.1l0,0l7.1-12.2c0.2-0.4,0.7-0.5,1.1-0.3c0,0,0,0,0,0
		c0.4,0.2,0.5,0.7,0.3,1.1L5.3,19C5.2,19.2,4.9,19.4,4.7,19.4z"/>
	<path id="Path_6" d="M21.3,19.4c-0.3,0-0.5-0.2-0.7-0.4L13.5,6.8c-0.2-0.4-0.1-0.9,0.3-1.1c0.4-0.2,0.9-0.1,1.1,0.3c0,0,0,0,0,0
		L22,18.1c0.2,0.4,0.1,0.9-0.3,1.1l0,0C21.6,19.3,21.5,19.4,21.3,19.4z"/>
	<ellipse id="Ellipse_3" class="st0" cx="13" cy="6.1" rx="2.8" ry="2.9"/>
	<path id="Path_3" d="M13,10.2c-2.2,0-4-1.8-3.9-4c0,0,0,0,0,0c0-2.2,1.8-3.9,3.9-3.9s3.9,1.8,3.9,3.9l0,0C17,8.3,15.2,10.1,13,10.2
		C13,10.2,13,10.2,13,10.2z M13,3.4c-1.5,0-2.8,1.1-2.8,2.7c0,1.5,1.1,2.8,2.7,2.8s2.8-1.1,2.8-2.7c0,0,0-0.1,0-0.1
		C15.7,4.6,14.5,3.4,13,3.4C13,3.4,13,3.4,13,3.4L13,3.4z"/>
	<ellipse id="Ellipse_3_1_" class="st1" cx="21" cy="19.7" rx="2.8" ry="2.9"/>
	<path id="Path_3_1_" d="M21,23.8c-2.2,0-4-1.8-3.9-4c0,0,0,0,0,0c0-2.2,1.8-3.9,3.9-3.9s3.9,1.8,3.9,3.9l0,0
		C25,22,23.2,23.8,21,23.8C21,23.8,21,23.8,21,23.8z M21,17c-1.5,0-2.8,1.1-2.8,2.7c0,1.5,1.1,2.8,2.7,2.8c1.5,0,2.8-1.1,2.8-2.7
		c0,0,0-0.1,0-0.1C23.7,18.3,22.5,17.1,21,17C21,17,21,17,21,17L21,17z"/>
	<ellipse id="Ellipse_3_2_" class="st2" cx="5" cy="19.6" rx="2.8" ry="2.9"/>
	<path id="Path_3_2_" d="M5,23.7c-2.2,0-4-1.8-3.9-4c0,0,0,0,0,0c0-2.2,1.8-3.9,3.9-3.9s3.9,1.8,3.9,3.9l0,0C9,21.9,7.2,23.7,5,23.7
		C5,23.7,5,23.7,5,23.7z M5,16.9c-1.5,0-2.8,1.1-2.8,2.7c0,1.5,1.1,2.8,2.7,2.8s2.8-1.1,2.8-2.7c0,0,0-0.1,0-0.1
		C7.7,18.2,6.5,17,5,16.9C5,16.9,5,16.9,5,16.9L5,16.9z"/>
</g>
</svg>
