<svg xmlns="http://www.w3.org/2000/svg" xmlns:xlink="http://www.w3.org/1999/xlink" width="26" height="26" viewBox="0 0 26 26">
  <defs>
    <clipPath id="clip-Connectors_on">
      <rect width="26" height="26"/>
    </clipPath>
  </defs>
  <g id="Connectors_on" clip-path="url(#clip-Connectors_on)">
    <g id="Vector_Smart_Object" data-name="Vector Smart Object" transform="translate(3 2.714)" style="isolation: isolate">
      <g id="Group_1" data-name="Group 1">
        <ellipse id="Ellipse_1" data-name="Ellipse 1" cx="2.5" cy="2.571" rx="2.5" ry="2.571" transform="translate(0 14.143)" fill="#60b9ee"/>
        <ellipse id="Ellipse_2" data-name="Ellipse 2" cx="2.5" cy="2.571" rx="2.5" ry="2.571" transform="translate(15 14.143)" fill="#60b9ee"/>
      </g>
      <ellipse id="Ellipse_3" data-name="Ellipse 3" cx="2.5" cy="2.571" rx="2.5" ry="2.571" transform="translate(7.5 1.286)" fill="#ffc107"/>
      <path id="Path_1" data-name="Path 1" d="M2.5,19.286a2.572,2.572,0,0,1,0-5.143,2.572,2.572,0,0,1,0,5.143Zm0-3.857A1.286,1.286,0,0,0,2.5,18a1.286,1.286,0,0,0,0-2.571Z"/>
      <path id="Path_2" data-name="Path 2" d="M17.5,19.286A2.572,2.572,0,1,1,20,16.714,2.536,2.536,0,0,1,17.5,19.286Zm0-3.857a1.286,1.286,0,1,0,1.25,1.286A1.268,1.268,0,0,0,17.5,15.429Z"/>
      <path id="Path_3" data-name="Path 3" d="M10,6.429A2.536,2.536,0,0,1,7.5,3.857a2.5,2.5,0,1,1,5,0A2.536,2.536,0,0,1,10,6.429Zm0-3.857a1.286,1.286,0,1,0,1.25,1.286A1.268,1.268,0,0,0,10,2.571Z"/>
      <path id="Path_4" data-name="Path 4" d="M15.625,17.357H4.375a.643.643,0,0,1,0-1.286h11.25a.643.643,0,0,1,0,1.286Z"/>
      <path id="Path_5" data-name="Path 5" d="M3.463,15.711a.6.6,0,0,1-.321-.091.653.653,0,0,1-.215-.882h0L8.5,5.172a.615.615,0,0,1,.865-.188.654.654,0,0,1,.206.849L4,15.4A.622.622,0,0,1,3.463,15.711Z"/>
      <path id="Path_6" data-name="Path 6" d="M16.537,15.711A.622.622,0,0,1,16,15.4L10.426,5.833a.654.654,0,0,1,.216-.883.616.616,0,0,1,.858.222l5.576,9.564a.653.653,0,0,1-.215.882h0A.6.6,0,0,1,16.537,15.711Z"/>
    </g>
  </g>
</svg>
