<svg xmlns="http://www.w3.org/2000/svg" xmlns:xlink="http://www.w3.org/1999/xlink" viewBox="0 0 229.36 31.88"><defs><style>.cls-1{fill:#fff;}.cls-2{fill:#69cf3b;}.cls-3{mask:url(#mask);}</style><mask id="mask" x="227.46" y="8.05" width="1.91" height="1.83" maskUnits="userSpaceOnUse"><g id="mask-2"><polygon id="path-1" class="cls-1" points="229.36 9.87 229.36 8.04 227.46 8.04 227.46 9.87 229.36 9.87"/></g></mask></defs><title>cylance-logo</title><g id="Layer_2" data-name="Layer 2"><g id="Layer_1-2" data-name="Layer 1"><g id="Page-1"><g id="cylance-logo"><g id="Page-1-2" data-name="Page-1"><path id="Fill-1" class="cls-1" d="M171.84,8.14h-.6a.52.52,0,0,0-.49.49V20.68a1.43,1.43,0,0,1-1.58,1.48,1.46,1.46,0,0,1-1.08-.51L156.76,9.2a3,3,0,0,0-2.28-1,3.32,3.32,0,0,0-3.18,3.43V23.25a.52.52,0,0,0,.51.48h.6a.52.52,0,0,0,.49-.49V11.59a1.74,1.74,0,0,1,1.58-1.86,1.46,1.46,0,0,1,1.08.51L166.9,22.69a3,3,0,0,0,2.28,1,3,3,0,0,0,3.18-3V8.62a.53.53,0,0,0-.51-.48"/><path id="Fill-3" class="cls-1" d="M61.33,22.15H46.63a1.74,1.74,0,0,1-1.58-1.86V11.51a2,2,0,0,1,.49-1.27,1.45,1.45,0,0,1,1.08-.51H61.33a.52.52,0,0,0,.52-.5V8.65a.53.53,0,0,0-.52-.48H46.61a3,3,0,0,0-2.28,1,3.57,3.57,0,0,0-.88,2.23v8.84a3.32,3.32,0,0,0,3.18,3.43H61.33a.52.52,0,0,0,.52-.5v-.59a.52.52,0,0,0-.52-.48"/><path id="Fill-5" class="cls-1" d="M114.34,22.15H99.64a1.74,1.74,0,0,1-1.58-1.86V8.67a.52.52,0,0,0-.51-.51H97a.52.52,0,0,0-.49.51V20.28a3.32,3.32,0,0,0,3.18,3.43h14.71a.52.52,0,0,0,.52-.5v-.59a.53.53,0,0,0-.52-.48"/><path id="Fill-7" class="cls-1" d="M198.11,22.15H183.4a1.74,1.74,0,0,1-1.58-1.86V11.51a2,2,0,0,1,.49-1.27,1.45,1.45,0,0,1,1.08-.51l14.72,0a.52.52,0,0,0,.52-.5V8.67a.52.52,0,0,0-.52-.48l-14.72,0a3,3,0,0,0-2.28,1,3.57,3.57,0,0,0-.88,2.23v8.84a3.32,3.32,0,0,0,3.18,3.43h14.71a.52.52,0,0,0,.52-.5v-.59a.52.52,0,0,0-.52-.48"/><path id="Fill-9" class="cls-1" d="M218.91,15.16h-8a.52.52,0,0,0-.49.5v.59a.53.53,0,0,0,.5.48h8a.52.52,0,0,0,.5-.5v-.59a.52.52,0,0,0-.51-.48"/><path id="Fill-11" class="cls-1" d="M224.9,22.63a.52.52,0,0,0-.52-.48h-14.7a1.74,1.74,0,0,1-1.58-1.86V11.51a2,2,0,0,1,.49-1.27,1.45,1.45,0,0,1,1.08-.51h14.73a.52.52,0,0,0,.52-.5V8.65a.52.52,0,0,0-.52-.48H209.66a3,3,0,0,0-2.28,1,3.57,3.57,0,0,0-.88,2.23v8.84a3.32,3.32,0,0,0,3.18,3.43h14.71a.52.52,0,0,0,.52-.5Z"/><path id="Fill-13" class="cls-1" d="M79.66,15.47,71,8.27a.61.61,0,0,0-.76.08l-.4.46a.48.48,0,0,0,.1.7l8.34,7v6.75a.54.54,0,0,0,.54.51h.66a.54.54,0,0,0,.53-.51V16.08a.76.76,0,0,0-.33-.62"/><path id="Fill-15" class="cls-2" d="M23.53,2.48h0L17.78,1.09V11.22a5,5,0,0,1-1,2.74l-2,2.4-.71-.87,1.72-2.11a4.14,4.14,0,0,0,.82-2.17V.81L13.54.06h0A2.93,2.93,0,0,0,12.93,0h0a2.94,2.94,0,0,0-.62.07h0l-3,.73v10a3.86,3.86,0,0,0,.75,2l7.51,9.09a5.2,5.2,0,0,1,1.1,2.92v3.91l5.88-3.87h0a2.8,2.8,0,0,0,1.31-2.36V5.24a2.83,2.83,0,0,0-2.31-2.76"/><path id="Fill-17" class="cls-2" d="M15.8,22.77,8.29,13.68a5.2,5.2,0,0,1-1.1-2.92V1.3L2.31,2.48h0A2.83,2.83,0,0,0,0,5.24v17.2a2.8,2.8,0,0,0,1.31,2.36h0l5.93,3.91v-4a5,5,0,0,1,1-2.74l2.64-3.2.71.86L9.24,22.6c-.56.68-.82,1.93-.82,3.93v3l2.84,1.87h0a2.89,2.89,0,0,0,1.65.52h0a2.89,2.89,0,0,0,1.65-.52h0l2-1.3v-5.3a3.86,3.86,0,0,0-.75-2"/><path id="Fill-19" class="cls-1" d="M88.55,7.93a.54.54,0,0,0-.71-.08l-6.9,5.7a.52.52,0,0,0-.08.7l.45.48a.54.54,0,0,0,.4.18.55.55,0,0,0,.31-.1L88.83,9.1a.52.52,0,0,0,.08-.71Z"/><path id="Fill-21" class="cls-1" d="M124.23,23.2a.53.53,0,1,0-.53.52.53.53,0,0,0,.53-.52"/><path id="Fill-23" class="cls-1" d="M143.5,23.2a.5.5,0,0,0-.1-.28h0l-7.26-13A3.5,3.5,0,0,0,130,10l-7.26,13h0a.5.5,0,0,0-.1.28.52.52,0,0,0,.46.51h.55a.52.52,0,0,0,.45-.24s6.8-12,7.29-12.77a1.88,1.88,0,0,1,3.31,0c.49.81,7.29,12.77,7.29,12.77l0,0a.52.52,0,0,0,.13.12l.06,0a.53.53,0,0,0,.23.06H143a.52.52,0,0,0,.45-.51"/><polygon id="Fill-25" class="cls-1" points="225.88 8.04 227.22 8.04 227.22 8.37 226.74 8.37 226.74 9.87 226.37 9.87 226.37 8.37 225.88 8.37 225.88 8.04"/><g id="Group-29"><g class="cls-3"><polygon id="Fill-27" class="cls-1" points="227.46 8.04 228.09 8.04 228.41 9.38 228.73 8.04 229.36 8.04 229.36 9.87 228.99 9.87 228.99 8.46 228.95 8.46 228.59 9.79 228.22 9.79 227.87 8.46 227.83 8.46 227.83 9.87 227.46 9.87 227.46 8.04"/></g></g></g></g></g></g></g></svg>