<svg xmlns="http://www.w3.org/2000/svg" xmlns:xlink="http://www.w3.org/1999/xlink" width="26" height="26" viewBox="0 0 26 26">
  <defs>
    <clipPath id="clip-Dashboard_on">
      <rect width="26" height="26"/>
    </clipPath>
  </defs>
  <g id="Dashboard_on" clip-path="url(#clip-Dashboard_on)">
    <g id="Vector_Smart_Object" data-name="Vector Smart Object" transform="translate(3 3)">
      <path id="Path_50" data-name="Path 50" d="M7.708,0H1.458A1.46,1.46,0,0,0,0,1.458v3.75A1.46,1.46,0,0,0,1.458,6.667h6.25A1.46,1.46,0,0,0,9.167,5.208V1.458A1.46,1.46,0,0,0,7.708,0Z" fill="#00c5d2"/>
      <path id="Path_51" data-name="Path 51" d="M7.708,8.333H1.458A1.46,1.46,0,0,0,0,9.792v8.75A1.46,1.46,0,0,0,1.458,20h6.25a1.46,1.46,0,0,0,1.458-1.458V9.792A1.46,1.46,0,0,0,7.708,8.333Z" fill="#ff8a5b"/>
      <path id="Path_52" data-name="Path 52" d="M18.542,13.333h-6.25a1.46,1.46,0,0,0-1.458,1.458v3.75A1.46,1.46,0,0,0,12.292,20h6.25A1.46,1.46,0,0,0,20,18.542v-3.75A1.46,1.46,0,0,0,18.542,13.333Z" fill="#60b9ee"/>
      <path id="Path_53" data-name="Path 53" d="M18.542,0h-6.25a1.46,1.46,0,0,0-1.458,1.458v8.75a1.46,1.46,0,0,0,1.458,1.458h6.25A1.46,1.46,0,0,0,20,10.208V1.458A1.46,1.46,0,0,0,18.542,0Z" fill="#ffc700"/>
      <path id="Path_54" data-name="Path 54" d="M7.708,6.667H1.458A1.46,1.46,0,0,1,0,5.208V1.458A1.46,1.46,0,0,1,1.458,0h6.25A1.46,1.46,0,0,1,9.167,1.458v3.75A1.46,1.46,0,0,1,7.708,6.667ZM1.458,1.25a.208.208,0,0,0-.208.208v3.75a.209.209,0,0,0,.208.208h6.25a.209.209,0,0,0,.208-.208V1.458a.209.209,0,0,0-.208-.208Z"/>
      <path id="Path_55" data-name="Path 55" d="M7.708,20H1.458A1.46,1.46,0,0,1,0,18.542V9.792A1.46,1.46,0,0,1,1.458,8.333h6.25A1.46,1.46,0,0,1,9.167,9.792v8.75A1.46,1.46,0,0,1,7.708,20ZM1.458,9.583a.209.209,0,0,0-.208.208v8.75a.208.208,0,0,0,.208.208h6.25a.209.209,0,0,0,.208-.208V9.792a.209.209,0,0,0-.208-.208Z"/>
      <path id="Path_56" data-name="Path 56" d="M18.542,20h-6.25a1.46,1.46,0,0,1-1.458-1.458v-3.75a1.46,1.46,0,0,1,1.458-1.458h6.25A1.46,1.46,0,0,1,20,14.792v3.75A1.46,1.46,0,0,1,18.542,20Zm-6.25-5.417a.209.209,0,0,0-.208.208v3.75a.209.209,0,0,0,.208.208h6.25a.208.208,0,0,0,.208-.208v-3.75a.209.209,0,0,0-.208-.208Z"/>
      <path id="Path_57" data-name="Path 57" d="M18.542,11.667h-6.25a1.46,1.46,0,0,1-1.458-1.458V1.458A1.46,1.46,0,0,1,12.292,0h6.25A1.46,1.46,0,0,1,20,1.458v8.75A1.46,1.46,0,0,1,18.542,11.667ZM12.292,1.25a.209.209,0,0,0-.208.208v8.75a.209.209,0,0,0,.208.208h6.25a.209.209,0,0,0,.208-.208V1.458a.208.208,0,0,0-.208-.208Z"/>
    </g>
  </g>
</svg>
