<?xml version="1.0" encoding="utf-8"?>
<!-- Generator: Adobe Illustrator 21.0.0, SVG Export Plug-In . SVG Version: 6.00 Build 0)  -->
<svg version="1.1" id="Layer_1" xmlns="http://www.w3.org/2000/svg" xmlns:xlink="http://www.w3.org/1999/xlink" x="0px" y="0px"
	 viewBox="0 0 427 427" style="enable-background:new 0 0 427 427;" xml:space="preserve">
<g>
	<path d="M179.2,47.9c0-4.3-0.1-8.3,0-12.2c0.3-17.6,13.4-32,30.8-33.9c17-1.8,33.1,9.4,36.8,26.3c1.2,5.7,0.8,11.7,1.1,17.6
		c0,0.5,0.1,1,0.1,2.1c1.2,0,2.4,0,3.6,0c29.1,0,58.1,0,87.2,0c17.6,0,32,11.5,34.4,28.9c1.4,10,0.7,20.3,0.4,30.4
		c-0.1,4.6-4.6,8.5-9.3,9.1c-1.4,0.2-2.9,0.2-4.4,0.2c-97.6,0-195.1,0-292.7,0c-3.8,0-7.6-0.2-10.3-3.3c-1.5-1.8-3.2-4.1-3.2-6.2
		c-0.2-10-1-20.2,0.3-30.1c2.3-17.4,16.6-29,34.2-29.1c29-0.1,57.9,0,86.9,0C176.2,47.9,177.5,47.9,179.2,47.9z M76.5,93.6
		c91.3,0,182.6,0,274,0c0-4.9,0.5-9.7-0.1-14.4c-0.5-3.8-3.3-6.5-7-7.6c-1.8-0.6-3.9-0.7-5.8-0.7c-82.6,0-165.3,0-247.9,0
		c-1,0-2.1,0-3.1,0.1c-4.7,0.4-9.3,4-9.8,8.6C76.1,84.1,76.5,88.7,76.5,93.6z M202.2,47.8c7.7,0,15.1,0,22.7,0c0-3.4,0-6.6,0-9.7
		c0-1.3,0-2.7-0.2-4c-0.8-5.4-5.8-9.4-11.5-9.3c-5.5,0.1-10.5,4.2-10.9,9.6C201.9,38.7,202.2,43.1,202.2,47.8z"/>
	<path d="M342.1,258.4c0,31.9,0,63.7,0,95.6c0,21.7-9,38.6-27.3,50.4c-8.7,5.6-18.5,8.4-28.9,8.5c-46.2,0.1-92.4,0.2-138.6,0
		c-31.9-0.1-56.9-25.4-57.1-57.3c-0.1-28.5,0-57.1,0-85.6c0-37.7,0-75.4,0-113c0-6.1,2.6-10.3,7.4-12.2c7.2-2.8,15,2.2,15.6,9.9
		c0.1,1.1,0,2.3,0,3.4c0,65.5,0,131,0,196.5c0,17.9,11.3,31.8,28.4,35c2.2,0.4,4.5,0.5,6.8,0.5c45.2,0,90.3,0.1,135.5,0
		c17.4,0,30.8-10.6,34.5-27.1c0.7-3.2,0.9-6.6,0.9-9.9c0-65.4,0-130.8,0-196.2c0-7.2,3.4-11.7,9.7-12.8c5.9-1,11.9,3.1,12.9,9.1
		c0.3,1.6,0.3,3.3,0.3,5C342.1,191.6,342.1,225,342.1,258.4z"/>
	<path d="M147.4,275.4c0-26.5,0-52.9,0-79.4c0-5.1,2.2-8.9,6.8-10.9c4.2-1.9,8.4-1.3,12,1.7c3.1,2.5,4.2,6,4.2,10
		c0,18.7,0,37.3,0,56c0,33.9,0,67.8,0,101.8c0,7.7-5.2,13-12.3,12.5c-6.1-0.4-10.6-5.2-10.6-11.6c-0.1-11.4,0-22.8,0-34.2
		C147.4,305.9,147.4,290.7,147.4,275.4z"/>
	<path d="M204.7,275.6c0-26.6,0-53.1,0-79.7c0-8.5,8-14.1,15.7-11c4,1.6,6.3,4.6,7,8.8c0.2,1.1,0.2,2.3,0.2,3.4
		c0,52.3,0,104.6,0,156.9c0,6.9-3.4,11.7-9,12.8c-7.6,1.5-13.9-3.8-13.9-11.9C204.7,328.5,204.7,302.1,204.7,275.6z"/>
	<path d="M262,275.5c0-26.5,0-52.9,0-79.4c0-8.8,8.1-14.4,15.8-11.1c3.7,1.6,6,4.3,6.7,8.3c0.3,1.6,0.3,3.3,0.3,5
		c0,51.5,0,103,0,154.5c0,1,0,2.1,0,3.1c-0.5,6.7-5.4,11.3-11.8,11.2c-6.4-0.2-11-5.1-11.1-11.8C262,328.7,262,302.1,262,275.5z"/>
</g>
</svg>
