<svg xmlns="http://www.w3.org/2000/svg" xmlns:xlink="http://www.w3.org/1999/xlink" width="26" height="26" viewBox="0 0 26 26">
  <defs>
    <clipPath id="clip-Devices_on">
      <rect width="26" height="26"/>
    </clipPath>
  </defs>
  <g id="Devices_on" clip-path="url(#clip-Devices_on)">
    <g id="Vector_Smart_Object" data-name="Vector Smart Object" transform="translate(3 3)">
      <g id="Group_7" data-name="Group 7">
        <path id="Path_40" data-name="Path 40" d="M18.542,16.042H1.458a.834.834,0,0,1-.833-.833V4.792a.834.834,0,0,1,.833-.833H18.542a.834.834,0,0,1,.833.833V15.208A.834.834,0,0,1,18.542,16.042Z" fill="#00c5d2"/>
      </g>
      <g id="Group_8" data-name="Group 8">
        <path id="Path_41" data-name="Path 41" d="M12.765,9.375H7.235A.834.834,0,0,1,6.4,8.542V2.292a.834.834,0,0,1,.833-.833h5.53a.834.834,0,0,1,.833.833v6.25a.834.834,0,0,1-.833.833Z" fill="#ffc700"/>
      </g>
      <g id="Group_9" data-name="Group 9">
        <path id="Path_42" data-name="Path 42" d="M18.542,16.667H1.458A1.46,1.46,0,0,1,0,15.208V4.792A1.46,1.46,0,0,1,1.458,3.333h2.5a.625.625,0,0,1,0,1.25h-2.5a.211.211,0,0,0-.208.208V15.208a.211.211,0,0,0,.208.208H18.542a.211.211,0,0,0,.208-.208V4.792a.211.211,0,0,0-.208-.208h-2.5a.625.625,0,1,1,0-1.25h2.5A1.46,1.46,0,0,1,20,4.792V15.208A1.46,1.46,0,0,1,18.542,16.667Z"/>
      </g>
      <g id="Group_10" data-name="Group 10">
        <path id="Path_43" data-name="Path 43" d="M10,20a.625.625,0,0,1-.625-.625V16.042a.625.625,0,1,1,1.25,0v3.333A.625.625,0,0,1,10,20Z"/>
      </g>
      <g id="Group_11" data-name="Group 11">
        <path id="Path_44" data-name="Path 44" d="M13.542,20H6.458a.625.625,0,0,1,0-1.25h7.083a.625.625,0,0,1,0,1.25Z"/>
      </g>
      <g id="Group_12" data-name="Group 12">
        <path id="Path_45" data-name="Path 45" d="M12.708,10H7.292A1.46,1.46,0,0,1,5.833,8.542V2.292A1.46,1.46,0,0,1,7.292.833h5.417a1.46,1.46,0,0,1,1.458,1.458v6.25A1.46,1.46,0,0,1,12.708,10ZM7.292,2.083a.208.208,0,0,0-.208.208v6.25a.208.208,0,0,0,.208.208h5.417a.208.208,0,0,0,.208-.208V2.292a.208.208,0,0,0-.208-.208Z"/>
      </g>
      <g id="Group_13" data-name="Group 13">
        <path id="Path_46" data-name="Path 46" d="M11.042,7.5H8.958a.625.625,0,0,1,0-1.25h2.083a.625.625,0,0,1,0,1.25Z"/>
      </g>
      <g id="Group_14" data-name="Group 14">
        <path id="Path_47" data-name="Path 47" d="M11.042,5H8.958a.625.625,0,0,1,0-1.25h2.083a.625.625,0,0,1,0,1.25Z"/>
      </g>
      <g id="Group_15" data-name="Group 15">
        <path id="Path_48" data-name="Path 48" d="M11.25,2.5a.625.625,0,0,1-.625-.625V.625a.625.625,0,0,1,1.25,0v1.25A.625.625,0,0,1,11.25,2.5Z"/>
      </g>
      <g id="Group_16" data-name="Group 16">
        <path id="Path_49" data-name="Path 49" d="M8.75,2.5a.625.625,0,0,1-.625-.625V.625a.625.625,0,0,1,1.25,0v1.25A.625.625,0,0,1,8.75,2.5Z"/>
      </g>
    </g>
  </g>
</svg>
