<?xml version="1.0" encoding="utf-8"?>
<!-- Generator: Adobe Illustrator 21.0.0, SVG Export Plug-In . SVG Version: 6.00 Build 0)  -->
<svg version="1.1" id="Layer_1" xmlns="http://www.w3.org/2000/svg" xmlns:xlink="http://www.w3.org/1999/xlink" x="0px" y="0px"
	 viewBox="0 0 200 200" style="enable-background:new 0 0 200 200;" xml:space="preserve">
<path d="M179.2,124c-2.5,0-4.6,2.1-4.6,4.6v40.9c0,7.6-6.2,13.8-13.8,13.8H31.5c-7.6,0-13.8-6.2-13.8-13.8V49.4
	c0-7.6,6.2-13.8,13.8-13.8h40.9c2.5,0,4.6-2.1,4.6-4.6c0-2.5-2.1-4.6-4.6-4.6H31.5c-12.7,0-23,10.3-23,23v120.1
	c0,12.7,10.3,23,23,23h129.3c12.7,0,23-10.3,23-23v-40.9C183.9,126.1,181.8,124,179.2,124z"/>
<path d="M182,14.6c-8.1-8.1-21.2-8.1-29.3,0L70.5,96.8c-0.6,0.6-1,1.3-1.2,2l-10.8,39c-0.4,1.6,0,3.3,1.2,4.5
	c1.2,1.2,2.9,1.6,4.5,1.2l39-10.8c0.8-0.2,1.5-0.6,2-1.2l82.2-82.2c8.1-8.1,8.1-21.2,0-29.3L182,14.6z M80.5,99.7l67.3-67.3
	l21.7,21.7l-67.3,67.3L80.5,99.7z M76.2,108.4l17.3,17.3l-24,6.6L76.2,108.4z M180.9,42.8l-4.9,4.9L154.3,26l4.9-4.9
	c4.5-4.5,11.8-4.5,16.3,0l5.4,5.4C185.4,31,185.4,38.3,180.9,42.8z"/>
</svg>
