<?xml version="1.0" encoding="utf-8"?>
<!-- Generator: Adobe Illustrator 21.0.0, SVG Export Plug-In . SVG Version: 6.00 Build 0)  -->
<svg version="1.1" id="Layer_1" xmlns="http://www.w3.org/2000/svg" xmlns:xlink="http://www.w3.org/1999/xlink" x="0px" y="0px"
	 viewBox="0 0 60.6 200" enable-background="new 0 0 60.6 200" xml:space="preserve">
<g>
	<path fill="#F00F00" d="M52.8,29.4c0.6-15.4-13.4-26.8-28.3-23c-9,2.3-17.9,11.1-16.7,25.7c2.5,29.9,4.5,59.8,6.7,89.7
		c0.6,8.9,7.1,15.4,15.7,15.4c8.7,0,15.2-6.4,15.8-15.5c0.9-12.9,1.9-25.9,2.9-38.8C50.2,65,51.5,47.2,52.8,29.4z M30.4,195.5
		c13,0,23.5-10.6,23.4-23.5c0-13-10.6-23.4-23.6-23.4c-13,0.1-23.5,10.6-23.4,23.5C6.8,185.1,17.3,195.6,30.4,195.5z"/>
	<path fill="#F00F00" d="M52.8,29.4c-1.3,17.8-2.6,35.7-3.9,53.5c-1,12.9-1.9,25.9-2.9,38.8c-0.6,9.1-7.2,15.6-15.8,15.5
		c-8.5,0-15-6.5-15.7-15.4c-2.2-29.9-4.2-59.9-6.7-89.7C6.6,17.5,15.6,8.7,24.5,6.4C39.4,2.6,53.4,13.9,52.8,29.4z"/>
	<path fill="#F00F00" d="M30.4,195.5c-13,0-23.5-10.4-23.6-23.4c-0.1-13,10.4-23.5,23.4-23.5c13-0.1,23.5,10.4,23.6,23.4
		C53.8,185,43.3,195.5,30.4,195.5z"/>
</g>
</svg>
