<svg xmlns="http://www.w3.org/2000/svg" width="51" height="51" viewBox="0 0 51 51">
  <g id="Group_56" data-name="Group 56" transform="translate(-282 -968)">
    <g id="Path_98" data-name="Path 98" transform="translate(282 968)" fill="none">
      <path d="M25.5,0A25.5,25.5,0,1,1,0,25.5,25.5,25.5,0,0,1,25.5,0Z" stroke="none"/>
      <path d="M 25.5 1 C 22.19207954406738 1 18.98363876342773 1.647640228271484 15.96379852294922 2.924919128417969 C 13.04647827148438 4.158840179443359 10.42623901367188 5.925521850585938 8.175880432128906 8.175880432128906 C 5.925521850585938 10.42623901367188 4.158840179443359 13.04647827148438 2.924919128417969 15.96379852294922 C 1.647640228271484 18.98363876342773 1 22.19207954406738 1 25.5 C 1 28.80792045593262 1.647640228271484 32.016357421875 2.924919128417969 35.03620147705078 C 4.158840179443359 37.95352172851563 5.925521850585938 40.57376098632813 8.175880432128906 42.82411956787109 C 10.42623901367188 45.07447814941406 13.04647827148438 46.84115982055664 15.96379852294922 48.07508087158203 C 18.98363876342773 49.35235977172852 22.19207954406738 50 25.5 50 C 28.80792045593262 50 32.016357421875 49.35235977172852 35.03620147705078 48.07508087158203 C 37.95352172851563 46.84115982055664 40.57376098632813 45.07447814941406 42.82411956787109 42.82411956787109 C 45.07447814941406 40.57376098632813 46.84115982055664 37.95352172851563 48.07508087158203 35.03620147705078 C 49.35235977172852 32.016357421875 50 28.80792045593262 50 25.5 C 50 22.19207954406738 49.35235977172852 18.98363876342773 48.07508087158203 15.96379852294922 C 46.84115982055664 13.04647827148438 45.07447814941406 10.42623901367188 42.82411956787109 8.175880432128906 C 40.57376098632813 5.925521850585938 37.95352172851563 4.158840179443359 35.03620147705078 2.924919128417969 C 32.016357421875 1.647640228271484 28.80792045593262 1 25.5 1 M 25.5 0 C 39.58325958251953 0 51 11.41674041748047 51 25.5 C 51 39.58325958251953 39.58325958251953 51 25.5 51 C 11.41674041748047 51 0 39.58325958251953 0 25.5 C 0 11.41674041748047 11.41674041748047 0 25.5 0 Z" stroke="none" fill="#707070"/>
    </g>
    <path id="Icon_ionic-ios-add" data-name="Icon ionic-ios-add" d="M25.91,16.875H19.125V10.09a1.125,1.125,0,0,0-2.25,0v6.785H10.09a1.125,1.125,0,0,0,0,2.25h6.785V25.91a1.125,1.125,0,0,0,2.25,0V19.125H25.91a1.125,1.125,0,0,0,0-2.25Z" transform="translate(289.942 975.5)" fill="#4c4c4c"/>
  </g>
</svg>
