<svg xmlns="http://www.w3.org/2000/svg" xmlns:xlink="http://www.w3.org/1999/xlink" width="26" height="26" viewBox="0 0 26 26">
  <defs>
    <clipPath id="clip-icon_settings">
      <rect width="26" height="26"/>
    </clipPath>
  </defs>
  <g id="icon_settings" clip-path="url(#clip-icon_settings)">
    <path id="Shape_3" data-name="Shape 3" d="M1276.4,55.989a1.665,1.665,0,0,1-1.614-1.293l-.4-1.793a8.838,8.838,0,0,1-1.877-1.086l-1.75.551a1.666,1.666,0,0,1-1.944-.755l-1.591-2.745a1.67,1.67,0,0,1,.308-2.043l1.357-1.244a9.6,9.6,0,0,1-.062-1.081,9.853,9.853,0,0,1,.061-1.081l-1.349-1.237a1.668,1.668,0,0,1-.32-2.04l1.6-2.762a1.668,1.668,0,0,1,1.936-.749l1.753.553a8.842,8.842,0,0,1,1.877-1.087l.4-1.794a1.663,1.663,0,0,1,1.613-1.291h3.194a1.665,1.665,0,0,1,1.615,1.293l.4,1.793a8.8,8.8,0,0,1,1.876,1.086l1.75-.552a1.668,1.668,0,0,1,1.943.756l1.592,2.744a1.671,1.671,0,0,1-.308,2.044l-1.357,1.243a9.583,9.583,0,0,1,0,2.162l1.35,1.237.007.005a1.667,1.667,0,0,1,.313,2.035l-1.6,2.762a1.662,1.662,0,0,1-1.937.747l-1.753-.552a8.873,8.873,0,0,1-1.877,1.086l-.4,1.795a1.662,1.662,0,0,1-1.613,1.292Zm-3.29-5.524a7.389,7.389,0,0,0,2.14,1.237.72.72,0,0,1,.454.517l.489,2.164a.217.217,0,0,0,.209.17h3.193a.215.215,0,0,0,.208-.168l.49-2.165a.721.721,0,0,1,.453-.517,7.4,7.4,0,0,0,2.141-1.237.717.717,0,0,1,.675-.131l2.113.665a.216.216,0,0,0,.255-.088l1.6-2.762a.234.234,0,0,0-.047-.276l-1.621-1.486a.716.716,0,0,1-.224-.634,8.347,8.347,0,0,0,0-2.5.715.715,0,0,1,.224-.634l1.624-1.49a.232.232,0,0,0,.038-.281l-1.592-2.745a.221.221,0,0,0-.261-.1l-2.11.665a.721.721,0,0,1-.675-.131,7.413,7.413,0,0,0-2.14-1.238.718.718,0,0,1-.454-.516l-.489-2.164a.22.22,0,0,0-.211-.168H1276.4a.214.214,0,0,0-.207.168l-.49,2.165a.722.722,0,0,1-.454.517,7.385,7.385,0,0,0-2.139,1.237.725.725,0,0,1-.675.131L1270.325,38a.219.219,0,0,0-.255.088l-1.6,2.761a.234.234,0,0,0,.049.28l1.619,1.483a.714.714,0,0,1,.224.634,8.347,8.347,0,0,0,0,2.5.716.716,0,0,1-.224.635l-1.625,1.489a.234.234,0,0,0-.037.282l1.592,2.745a.22.22,0,0,0,.261.1l2.11-.664a.691.691,0,0,1,.217-.033A.721.721,0,0,1,1273.113,50.465Zm.085-5.965a4.8,4.8,0,1,1,4.8,4.787A4.8,4.8,0,0,1,1273.2,44.5Zm1.441,0A3.361,3.361,0,1,0,1278,41.149,3.36,3.36,0,0,0,1274.639,44.5Z" transform="translate(-1265.003 -31.011)" fill="#9b9fab"/>
  </g>
</svg>
