<svg xmlns="http://www.w3.org/2000/svg" xmlns:xlink="http://www.w3.org/1999/xlink" width="287.086" height="185" viewBox="0 0 287.086 185">
  <defs>
    <clipPath id="clip-path">
      <rect id="Rectangle_1" data-name="Rectangle 1" width="283" height="146" transform="translate(21 95)" fill="#fff" stroke="#707070" stroke-width="1"/>
    </clipPath>
    <linearGradient id="linear-gradient" y1="0.5" x2="1" y2="0.5" gradientUnits="objectBoundingBox">
      <stop offset="0" stop-color="#f44336"/>
      <stop offset="0.496" stop-color="#f9e141"/>
      <stop offset="1" stop-color="#21c393"/>
    </linearGradient>
  </defs>
  <g id="Life_Cycel" data-name="Life Cycel" transform="translate(-1356 -165)">
    <g id="Group_42" data-name="Group 42" transform="translate(1335 70)">
      <g id="Industry_Avarage" data-name="Industry Avarage">
        <g id="Chart">
          <text id="Low" transform="translate(46.5 262.5)" fill="#2c3538" font-size="16" font-family="ProximaNova-Semibold, Proxima Nova" font-weight="600" opacity="0.541"><tspan x="-14.56" y="0">Low</tspan></text>
          <text id="High" transform="translate(290.5 262.5)" fill="#2c3538" font-size="16" font-family="ProximaNova-Semibold, Proxima Nova" font-weight="600" opacity="0.541"><tspan x="-16.904" y="0">High</tspan></text>
          <path id="Ellipse_1_copy_9" data-name="Ellipse 1 copy 9" d="M80.006,239H52.017c-.011-.687-.017-1.36-.017-2a117.863,117.863,0,0,1,2.377-23.58,116.359,116.359,0,0,1,17.6-41.836,117.341,117.341,0,0,1,51.477-42.39,116.412,116.412,0,0,1,21.962-6.817,118.14,118.14,0,0,1,47.159,0,116.359,116.359,0,0,1,41.836,17.6,117.342,117.342,0,0,1,42.39,51.477,116.415,116.415,0,0,1,6.817,21.962A117.863,117.863,0,0,1,286,237c0,.661-.006,1.334-.017,2H258.995c0-.307.005-.643.005-1,0-49.626-40.15-90-89.5-90S80,188.373,80,238c0,.333,0,.67.005,1Z" fill="#f2f4f4"/>
          <line id="Path" y2="117.39" transform="translate(171.54 121.69)" fill="none" stroke="#dee3e4" stroke-width="0.5" stroke-dasharray="4 2"/>
          <line id="Path_copy" data-name="Path copy" x2="117.39" transform="translate(52.58 239.13)" fill="none" stroke="#dee3e4" stroke-width="0.5" stroke-dasharray="4 2"/>
          <line id="Path_copy_2" data-name="Path copy 2" x2="117.39" transform="translate(167.58 239.13)" fill="none" stroke="#dee3e4" stroke-width="0.5" stroke-dasharray="4 2"/>
        </g>
      </g>
      <g id="Mask_Group_1" data-name="Mask Group 1" clip-path="url(#clip-path)">
        <path id="Ellipse_1_copy_7" data-name="Ellipse 1 copy 7" d="M169,354a117.862,117.862,0,0,1-23.58-2.377,116.359,116.359,0,0,1-41.836-17.6,117.341,117.341,0,0,1-42.39-51.477,116.411,116.411,0,0,1-6.817-21.962,118.141,118.141,0,0,1,0-47.159,116.359,116.359,0,0,1,17.6-41.836,117.341,117.341,0,0,1,51.477-42.39,116.411,116.411,0,0,1,21.962-6.817,118.14,118.14,0,0,1,47.159,0,116.359,116.359,0,0,1,41.836,17.6,117.341,117.341,0,0,1,42.39,51.477,116.414,116.414,0,0,1,6.817,21.962,118.141,118.141,0,0,1,0,47.159,116.359,116.359,0,0,1-17.6,41.836,117.342,117.342,0,0,1-51.477,42.39,116.414,116.414,0,0,1-21.962,6.817A117.863,117.863,0,0,1,169,354Zm.5-206c-49.35,0-89.5,40.374-89.5,90s40.149,90,89.5,90S259,287.626,259,238,218.85,148,169.5,148Z" fill="url(#linear-gradient)"/>
      </g>
      <g id="pointer" fill="#2c3638" stroke-linejoin="round">
        <path d="M 172.9115753173828 246.2442016601563 C 170.4015502929688 246.2442016601563 168.2704467773438 244.7065277099609 167.3499450683594 242.2312316894531 C 166.7216949462891 240.5416564941406 166.8081665039063 238.7976379394531 167.5934295654297 237.3204498291016 C 168.4134216308594 235.7779846191406 169.8955230712891 234.6789703369141 171.7667541503906 234.2258605957031 L 171.7968139648438 234.2185668945313 L 171.8257598876953 234.2076416015625 L 172.8761596679688 233.8108978271484 L 297.7099914550781 194.3311920166016 L 176.9958648681641 244.9159698486328 L 176.9756011962891 244.9244537353516 L 176.9561614990234 244.9346923828125 L 175.9423370361328 245.4684906005859 C 174.9644012451172 245.9832000732422 173.9446716308594 246.2442016601563 172.9115753173828 246.2442016601563 Z" stroke="none"/>
        <path d="M 287.3338623046875 198.1371307373047 L 173.0400085449219 234.2834777832031 L 172.0024719238281 234.6753845214844 C 171.9638977050781 234.68994140625 171.9244995117188 234.7021026611328 171.8844604492188 234.7118072509766 C 170.1540222167969 235.1308135986328 168.7868957519531 236.140625 168.034912109375 237.55517578125 C 167.317626953125 238.9044189453125 167.2408142089844 240.5031890869141 167.8185729980469 242.0569458007813 C 168.6643676757813 244.3313293457031 170.6159057617188 245.7442016601563 172.9115905761719 245.7442016601563 C 173.8627014160156 245.7442016601563 174.8040771484375 245.5025634765625 175.7094116210938 245.0260772705078 L 176.7232055664063 244.4922790527344 C 176.7491149902344 244.4786376953125 176.7756042480469 244.4661254882813 176.8026123046875 244.4548187255859 L 287.3338623046875 198.1371307373047 M 308.0859985351563 190.5252990722656 L 177.1890869140625 245.3771057128906 L 176.17529296875 245.9109039306641 C 175.1010131835938 246.476318359375 173.9869079589844 246.7442016601563 172.9115905761719 246.7442016601563 C 170.2926330566406 246.7442016601563 167.9038391113281 245.1551971435547 166.8812866210938 242.405517578125 C 165.4390869140625 238.5269775390625 167.6007080078125 234.7201995849609 171.6491088867188 233.7398986816406 L 172.7122802734375 233.3383026123047 L 308.0859985351563 190.5252990722656 Z" stroke="none" fill="#fff"/>
      </g>
      <g id="status" transform="translate(-45 95)">
        <rect id="Rounded_Rectangle_2" data-name="Rounded Rectangle 2" width="65" height="23" rx="11.5" transform="translate(181 78)" fill="#21c393"/>
        <text id="Stable" transform="translate(191 95)" fill="#fff" font-size="16" font-family="ProximaNova-Semibold, Proxima Nova" font-weight="600"><tspan x="0" y="0">Stable</tspan></text>
      </g>
    </g>
    <text id="System_Life_Cycle" data-name="System Life Cycle" transform="translate(1509 346)" fill="#4c4c4c" font-size="18" font-family="ProximaNova-Semibold, Proxima Nova" font-weight="600"><tspan x="-70.911" y="0">System Life Cycle</tspan></text>
  </g>
</svg>
