<svg xmlns="http://www.w3.org/2000/svg" xmlns:xlink="http://www.w3.org/1999/xlink" width="137.661" height="48.263" viewBox="0 0 137.661 48.263">
  <defs>
    <linearGradient id="linear-gradient" x1="-3.952" y1="-0.206" x2="-2.471" y2="-0.613" gradientUnits="objectBoundingBox">
      <stop offset="0" stop-color="#71efb5"/>
      <stop offset="1" stop-color="#3782b0"/>
    </linearGradient>
    <linearGradient id="linear-gradient-2" x1="0.079" y1="-1.942" x2="0.573" y2="-1.251" gradientUnits="objectBoundingBox">
      <stop offset="0" stop-color="#c928f6"/>
      <stop offset="1" stop-color="#5d00a4"/>
    </linearGradient>
    <linearGradient id="linear-gradient-3" x1="0.332" y1="0.877" x2="0.748" y2="-0.058" gradientUnits="objectBoundingBox">
      <stop offset="0" stop-color="#f1af40"/>
      <stop offset="0.617" stop-color="#ef4762"/>
    </linearGradient>
  </defs>
  <g id="Group_138" data-name="Group 138" transform="translate(-50.201 -14.683)">
    <g id="Group_1" data-name="Group 1" transform="translate(50.201 14.683)">
      <g id="Group_17" data-name="Group 17" transform="translate(0 16.478)">
        <g id="Group_16" data-name="Group 16">
          <g id="Group_15" data-name="Group 15">
            <g id="Group_13" data-name="Group 13" transform="translate(22.477)">
              <path id="Path_19" data-name="Path 19" d="M301.807,222.753V200.084a9.115,9.115,0,0,1,9.116-9.116v22.669A9.114,9.114,0,0,1,301.807,222.753Z" transform="translate(-301.807 -190.968)" fill="url(#linear-gradient)"/>
            </g>
            <g id="Group_14" data-name="Group 14" transform="translate(0 10.415)">
              <path id="Path_20" data-name="Path 20" d="M174.377,252.685a9.068,9.068,0,0,1,4.265-2.406q.14-.034.28-.064a9.059,9.059,0,0,1,2.168-.2,9.26,9.26,0,0,1,1.187.113,9.085,9.085,0,0,1,4.992,2.554l.826.825,10.733,10.731,1.048,1.048.118.118,1.722,1.722.84.84.744.744a9.157,9.157,0,0,1-1.522,1.228,9.032,9.032,0,0,1-3.951,1.39,9.551,9.551,0,0,1-1.053.053,9.085,9.085,0,0,1-6.366-2.671l-5.4-5.4-1.489-1.487Z" transform="translate(-174.377 -250.014)" fill="url(#linear-gradient-2)"/>
            </g>
          </g>
        </g>
      </g>
      <circle id="Ellipse_1" data-name="Ellipse 1" cx="6.354" cy="6.354" r="6.354" transform="translate(18.918 0)" fill="url(#linear-gradient-3)"/>
    </g>
    <g id="logo" transform="translate(88.13 24.881)">
      <path id="Path_120" data-name="Path 120" d="M-50.587-12.488h2.759l3.572,7.22,3.471-7.22h2.776L-44.3.469Zm15.076-6.8h2.6V0h-2.6ZM-29.411,0V-12.488h2.573v2.074a10.469,10.469,0,0,1,2.059-1.839,3.778,3.778,0,0,1,2.059-.583,4.1,4.1,0,0,1,2.9,1.12,3.551,3.551,0,0,1,1.2,2.694V0h-2.634V-8.25a2.292,2.292,0,0,0-.658-1.68,2.252,2.252,0,0,0-1.673-.666,2.9,2.9,0,0,0-2.271,1.113A3.989,3.989,0,0,0-26.807-6.8V0Zm12.775-12.488h2.759l3.572,7.22,3.471-7.22h2.776L-10.346.469ZM10.7-5.737H.045A4.2,4.2,0,0,0,1.627-2.929a4.512,4.512,0,0,0,2.687.885A4.657,4.657,0,0,0,8.068-3.905L9.99-2.452a6.953,6.953,0,0,1-5.8,2.8A6.278,6.278,0,0,1-.469-1.559,6.487,6.487,0,0,1-2.346-6.3a6.356,6.356,0,0,1,1.9-4.594,6.237,6.237,0,0,1,4.639-1.945A6.213,6.213,0,0,1,8.81-10.861,6.935,6.935,0,0,1,10.7-5.737ZM.318-7.841H7.947a4.033,4.033,0,0,0-3.754-2.573A3.983,3.983,0,0,0,.318-7.841ZM13.245,0V-12.488h2.573v2.074a10.469,10.469,0,0,1,2.059-1.839,3.778,3.778,0,0,1,2.059-.583,4.1,4.1,0,0,1,2.9,1.12,3.551,3.551,0,0,1,1.2,2.694V0H21.4V-8.25a2.292,2.292,0,0,0-.658-1.68,2.252,2.252,0,0,0-1.673-.666A2.9,2.9,0,0,0,16.8-9.483,3.989,3.989,0,0,0,15.848-6.8V0Zm14.91-16.121h2.634v3.633h2.6v2.407h-2.6V0H28.154V-10.081H26.081v-2.437h2.074Zm18.073,3.633h2.634V0H46.228V-2.482A5.639,5.639,0,0,1,41.459.348a5.479,5.479,0,0,1-4.216-1.937A6.776,6.776,0,0,1,35.5-6.3a6.631,6.631,0,0,1,1.763-4.579,5.407,5.407,0,0,1,4.14-1.96,5.268,5.268,0,0,1,2.785.8,5.707,5.707,0,0,1,2.043,2.089Zm.363,6.282a3.978,3.978,0,0,0-1.228-2.929,4.03,4.03,0,0,0-2.942-1.219,4.04,4.04,0,0,0-2.912,1.211A3.846,3.846,0,0,0,38.266-6.3a4.15,4.15,0,0,0,1.213,3.012,3.961,3.961,0,0,0,2.942,1.241,4,4,0,0,0,2.942-1.234A4.01,4.01,0,0,0,46.591-6.206Z" transform="translate(50.87 27.119)"/>
    </g>
  </g>
</svg>
