<svg xmlns="http://www.w3.org/2000/svg" xmlns:xlink="http://www.w3.org/1999/xlink" width="26" height="26" viewBox="0 0 26 26">
  <defs>
    <clipPath id="clip-Policy-Center_on">
      <rect width="26" height="26"/>
    </clipPath>
  </defs>
  <g id="Policy-Center_on" clip-path="url(#clip-Policy-Center_on)">
    <g id="Vector_Smart_Object" data-name="Vector Smart Object" transform="translate(2.869 3)" style="isolation: isolate">
      <path id="Path_31" data-name="Path 31" d="M18.1,1.232a.447.447,0,0,0-.7-.139,4.649,4.649,0,0,1-3.062,1.145A4.631,4.631,0,0,1,10.482.187a.423.423,0,0,0-.7,0A4.638,4.638,0,0,1,5.92,2.238,4.652,4.652,0,0,1,2.833,1.071a.421.421,0,0,0-.7.309v9.037c0,5.2,7.477,9.357,7.8,9.532a.427.427,0,0,0,.407,0c.318-.174,7.8-4.328,7.8-9.532v-9A.4.4,0,0,0,18.1,1.232Z" fill="#60b9ee"/>
      <path id="Path_32" data-name="Path 32" d="M10.132,17.638c2.176-1.378,5.893-4.336,5.893-7.222H4.237V4.11a6.816,6.816,0,0,0,1.684.211,6.764,6.764,0,0,0,4.21-1.462Z" fill="#ffc700"/>
      <path id="Path_33" data-name="Path 33" d="M10.13,20a.43.43,0,0,1-.2-.052c-.318-.174-7.8-4.328-7.8-9.532V1.38A.416.416,0,0,1,2.381,1a.423.423,0,0,1,.453.07A4.65,4.65,0,0,0,5.921,2.237,4.637,4.637,0,0,0,9.782.186a.423.423,0,0,1,.7,0,4.633,4.633,0,0,0,3.859,2.051A4.649,4.649,0,0,0,17.4,1.093a.447.447,0,0,1,.7.139.415.415,0,0,1,.027.183v9c0,5.2-7.477,9.357-7.8,9.532A.434.434,0,0,1,10.13,20ZM2.973,2.218v8.2c0,4.268,5.968,7.987,7.157,8.685,1.188-.7,7.157-4.421,7.157-8.685V2.22a5.509,5.509,0,0,1-2.945.851,5.483,5.483,0,0,1-4.211-1.957,5.482,5.482,0,0,1-4.21,1.957A5.5,5.5,0,0,1,2.973,2.218Z"/>
      <path id="Path_34" data-name="Path 34" d="M10.132,18.055A.423.423,0,0,1,9.93,18a.417.417,0,0,1-.219-.365V10.833H4.236a.426.426,0,0,1-.3-.122.413.413,0,0,1-.123-.295V4.11a.42.42,0,0,1,.526-.4A6.466,6.466,0,0,0,9.868,2.534a.426.426,0,0,1,.445-.052.417.417,0,0,1,.239.377V10h5.471a.419.419,0,0,1,.421.417c0,3.448-4.658,6.667-6.086,7.572A.419.419,0,0,1,10.132,18.055Zm.42-7.222v6.028c2.39-1.634,4.739-3.922,5.022-6.028ZM4.658,10H9.71V3.663a7.311,7.311,0,0,1-5.053.963Z"/>
    </g>
  </g>
</svg>
