<svg xmlns="http://www.w3.org/2000/svg" xmlns:xlink="http://www.w3.org/1999/xlink" width="26" height="26" viewBox="0 0 26 26">
  <defs>
    <clipPath id="clip-Users_on">
      <rect width="26" height="26"/>
    </clipPath>
  </defs>
  <g id="Users_on" clip-path="url(#clip-Users_on)">
    <g id="Vector_Smart_Object" data-name="Vector Smart Object" transform="translate(0 0.767)" style="isolation: isolate">
      <path id="Path_25" data-name="Path 25" d="M18.516,16.743l-2.6-.637-.178-.7a4.944,4.944,0,0,0,1.327-2.577,1.23,1.23,0,0,0,.784-.988l.177-1.385a1.211,1.211,0,0,0-.3-.955,1.251,1.251,0,0,0-.372-.285l.055-1.107.217-.214a1.76,1.76,0,0,0,.059-2.387,3.167,3.167,0,0,0-2.834-1.279,4.928,4.928,0,0,0-2.736.7c-3.141.082-3.549,1.617-3.549,2.954,0,.29.063.885.113,1.314a1.24,1.24,0,0,0-.413.3,1.208,1.208,0,0,0-.3.961l.177,1.386a1.229,1.229,0,0,0,.871,1.018,4.964,4.964,0,0,0,1.258,2.483l-.194.76-2.6.636a4.092,4.092,0,0,0-3.15,3.96.53.53,0,0,0,.158.376.545.545,0,0,0,.383.155h16.25a.537.537,0,0,0,.542-.531A4.089,4.089,0,0,0,18.516,16.743Z" fill="#ffc700"/>
      <path id="Path_26" data-name="Path 26" d="M7.155,15.455l1.291-.317a6.274,6.274,0,0,1-.608-1.391A2.544,2.544,0,0,1,6.8,12.008l-.177-1.383a2.53,2.53,0,0,1,.632-2l.005-.005a7.207,7.207,0,0,1-.043-.731A4.429,4.429,0,0,1,7.777,5.6L7.269,5.6a3.094,3.094,0,0,0-1.313.437l-.063.038-.073,0C3.656,6.143,3.38,7.2,3.38,8.114c0,.147.025.45.07.854l.02.17-.152.088a.78.78,0,0,0-.191.154.769.769,0,0,0-.192.609L3.066,11a.758.758,0,0,0,.486.609l.135.054.028.14a3.528,3.528,0,0,0,.83,1.643l.094.1-.177.692-1.978.485A2.875,2.875,0,0,0,.271,17.515a.268.268,0,0,0,.271.266H3.866A5.46,5.46,0,0,1,7.155,15.455Z" fill="#00c5d2"/>
      <path id="Path_27" data-name="Path 27" d="M17.624,15.155l1.221.3a5.465,5.465,0,0,1,3.29,2.326h3.325a.268.268,0,0,0,.271-.266,2.875,2.875,0,0,0-2.214-2.782l-1.978-.485-.164-.646.1-.105a3.5,3.5,0,0,0,.875-1.7l.026-.131L22.5,11.6a.771.771,0,0,0,.44-.6l.13-1.017a.766.766,0,0,0-.362-.748l-.133-.083.045-.927.2-.193a1.166,1.166,0,0,0,.024-1.593,2.193,2.193,0,0,0-1.973-.883,4.062,4.062,0,0,0-1.211.167l-.041.013-.313,0a2.916,2.916,0,0,1-.53,2.909,2.52,2.52,0,0,1,.607,1.977L19.2,12.009a2.555,2.555,0,0,1-.933,1.659A6.359,6.359,0,0,1,17.624,15.155Z" fill="#00c5d2"/>
      <path id="Path_28" data-name="Path 28" d="M3.727,18.046H.542A.537.537,0,0,1,0,17.515a3.142,3.142,0,0,1,2.419-3.041l1.821-.446.1-.4a3.8,3.8,0,0,1-.893-1.768,1.023,1.023,0,0,1-.653-.821l-.13-1.017A1.03,1.03,0,0,1,2.925,9.2,1.044,1.044,0,0,1,3.181,9c-.035-.307-.071-.686-.071-.884,0-.958.284-2.228,2.7-2.306A3.375,3.375,0,0,1,7.273,5.33a.531.531,0,1,1,.115,1.056A2.244,2.244,0,0,0,6.3,6.767a.545.545,0,0,1-.31.1c-1.794.018-1.794.643-1.794,1.247,0,.208.073.849.118,1.2a.522.522,0,0,1-.131.418.547.547,0,0,1-.407.181l.1.99a.583.583,0,0,1,.6.469,2.668,2.668,0,0,0,.837,1.706.525.525,0,0,1,.155.516l-.253,1a.536.536,0,0,1-.394.387L2.682,15.5a2.089,2.089,0,0,0-1.529,1.478H3.727a.531.531,0,1,1,0,1.062Z"/>
      <path id="Path_29" data-name="Path 29" d="M4.875,21.233a.551.551,0,0,1-.383-.155.523.523,0,0,1-.158-.376,4.09,4.09,0,0,1,3.15-3.959l2.6-.637.194-.76a4.986,4.986,0,0,1-1.258-2.483,1.233,1.233,0,0,1-.871-1.018L7.969,10.46a1.208,1.208,0,0,1,.3-.961,1.24,1.24,0,0,1,.413-.3c-.05-.429-.113-1.024-.113-1.314,0-1.337.407-2.871,3.549-2.953a4.921,4.921,0,0,1,2.736-.7,3.167,3.167,0,0,1,2.834,1.279A1.759,1.759,0,0,1,17.633,7.9l-.217.214-.055,1.107a1.232,1.232,0,0,1,.372.285,1.207,1.207,0,0,1,.3.955l-.177,1.385a1.23,1.23,0,0,1-.784.988,4.944,4.944,0,0,1-1.327,2.577l.178.7,2.6.637a4.089,4.089,0,0,1,3.15,3.958.537.537,0,0,1-.542.531Zm.589-1.063H20.536a3.037,3.037,0,0,0-2.282-2.4l-2.912-.714a.537.537,0,0,1-.394-.386l-.332-1.3a.525.525,0,0,1,.164-.525,3.879,3.879,0,0,0,1.262-2.5.538.538,0,0,1,.541-.489.177.177,0,0,0,.2-.141l.177-1.387a.153.153,0,0,0-.039-.124.164.164,0,0,0-.123-.055.543.543,0,0,1-.388-.167.529.529,0,0,1-.147-.39l.085-1.734a.529.529,0,0,1,.158-.351l.353-.346c.125-.13.378-.394-.07-1.066a2.125,2.125,0,0,0-1.927-.8,3.788,3.788,0,0,0-2.25.594.545.545,0,0,1-.31.1C9.656,6.014,9.656,7.05,9.656,7.883c0,.329.117,1.314.162,1.666a.522.522,0,0,1-.131.418.546.546,0,0,1-.406.18c-.137,0-.179.034-.2.054a.162.162,0,0,0-.04.127l.177,1.386a.163.163,0,0,0,.164.141H9.5a.538.538,0,0,1,.541.489,3.845,3.845,0,0,0,1.2,2.454.523.523,0,0,1,.155.516l-.347,1.359a.537.537,0,0,1-.394.387l-2.912.714A3.036,3.036,0,0,0,5.464,20.17Z"/>
      <path id="Path_30" data-name="Path 30" d="M23.58,14.474l-1.82-.446-.09-.353a3.78,3.78,0,0,0,.942-1.832,1.042,1.042,0,0,0,.591-.806l.13-1.016a1.025,1.025,0,0,0-.251-.811,1.165,1.165,0,0,0-.234-.2l.034-.67L23,8.224A1.419,1.419,0,0,0,23.062,6.3a2.45,2.45,0,0,0-2.2-1,4.269,4.269,0,0,0-1.384.209.528.528,0,0,0-.336.675.542.542,0,0,0,.688.329,3.225,3.225,0,0,1,1.032-.151,1.431,1.431,0,0,1,1.293.522c.266.4.146.524.07.6l-.259.254a.527.527,0,0,0-.158.35l-.063,1.272a.488.488,0,0,0,.135.376.511.511,0,0,0,.377.154l-.132,1a.539.539,0,0,0-.541.49,2.689,2.689,0,0,1-.878,1.74.524.524,0,0,0-.163.524l.244.954a.536.536,0,0,0,.394.387l2.135.524a2.09,2.09,0,0,1,1.53,1.479H22.274a.531.531,0,1,0,0,1.062h3.184A.537.537,0,0,0,26,17.514,3.141,3.141,0,0,0,23.58,14.474Z"/>
    </g>
  </g>
</svg>
