<svg id="Group_1" data-name="Group 1" xmlns="http://www.w3.org/2000/svg" xmlns:xlink="http://www.w3.org/1999/xlink" width="31.626" height="48.263" viewBox="0 0 31.626 48.263">
  <defs>
    <linearGradient id="linear-gradient" x1="-3.952" y1="-0.206" x2="-2.471" y2="-0.613" gradientUnits="objectBoundingBox">
      <stop offset="0" stop-color="#71efb5"/>
      <stop offset="1" stop-color="#3782b0"/>
    </linearGradient>
    <linearGradient id="linear-gradient-2" x1="0.079" y1="-1.942" x2="0.573" y2="-1.251" gradientUnits="objectBoundingBox">
      <stop offset="0" stop-color="#c928f6"/>
      <stop offset="1" stop-color="#5d00a4"/>
    </linearGradient>
    <linearGradient id="linear-gradient-3" x1="0.332" y1="0.877" x2="0.748" y2="-0.058" gradientUnits="objectBoundingBox">
      <stop offset="0" stop-color="#f1af40"/>
      <stop offset="0.617" stop-color="#ef4762"/>
    </linearGradient>
  </defs>
  <g id="Group_17" data-name="Group 17" transform="translate(0 16.478)">
    <g id="Group_16" data-name="Group 16">
      <g id="Group_15" data-name="Group 15">
        <g id="Group_13" data-name="Group 13" transform="translate(22.477)">
          <path id="Path_19" data-name="Path 19" d="M301.807,222.753V200.084a9.115,9.115,0,0,1,9.116-9.116v22.669A9.114,9.114,0,0,1,301.807,222.753Z" transform="translate(-301.807 -190.968)" fill="url(#linear-gradient)"/>
        </g>
        <g id="Group_14" data-name="Group 14" transform="translate(0 10.415)">
          <path id="Path_20" data-name="Path 20" d="M174.377,252.685a9.068,9.068,0,0,1,4.265-2.406q.14-.034.28-.064a9.059,9.059,0,0,1,2.168-.2,9.26,9.26,0,0,1,1.187.113,9.085,9.085,0,0,1,4.992,2.554l.826.825,10.733,10.731,1.048,1.048.118.118,1.722,1.722.84.84.744.744a9.157,9.157,0,0,1-1.522,1.228,9.032,9.032,0,0,1-3.951,1.39,9.551,9.551,0,0,1-1.053.053,9.085,9.085,0,0,1-6.366-2.671l-5.4-5.4-1.489-1.487Z" transform="translate(-174.377 -250.014)" fill="url(#linear-gradient-2)"/>
        </g>
      </g>
    </g>
  </g>
  <circle id="Ellipse_1" data-name="Ellipse 1" cx="6.354" cy="6.354" r="6.354" transform="translate(18.918 0)" fill="url(#linear-gradient-3)"/>
</svg>
